<svg width="336" height="252" viewBox="0 0 336 252" fill="none" xmlns="http://www.w3.org/2000/svg">
<g clip-path="url(#clip0_1_27378)">
<path d="M62.9119 4.72573C62.9117 3.87149 62.6791 3.03329 62.239 2.30031C61.7989 1.56733 61.1677 0.967001 60.4125 0.563193C59.6573 0.159386 58.8064 -0.0327895 57.9504 0.0071113C57.0943 0.0470121 56.2652 0.317497 55.5511 0.789789C54.837 1.26208 54.2647 1.91851 53.8951 2.68923C53.5255 3.45995 53.3725 4.31612 53.4522 5.16666C53.532 6.0172 53.8415 6.83027 54.348 7.51937C54.8545 8.20847 55.5389 8.74782 56.3284 9.08002V33.6007H60.0152V9.08002C60.874 8.7185 61.6068 8.11262 62.122 7.33816C62.6372 6.56369 62.912 5.65501 62.9119 4.72573Z" fill="#CCCCCC"/>
<path d="M89.5116 122.325H89.51C88.093 122.324 86.6908 122.038 85.3872 121.484C84.0836 120.93 82.9053 120.12 81.9228 119.102C80.9403 118.084 80.1737 116.879 79.6687 115.56C79.1638 114.24 78.9309 112.832 78.984 111.421C79.1951 105.854 84.0301 101.325 89.7622 101.325H118.7L142.513 90.8173C143.152 90.5365 143.876 90.5196 144.527 90.7703C145.179 91.021 145.703 91.5188 145.987 92.1547L152.383 106.557C152.665 107.194 152.682 107.916 152.43 108.565C152.179 109.214 151.679 109.737 151.041 110.02L127.587 120.369C125.264 121.398 122.755 121.942 120.213 121.969L89.5116 122.325Z" fill="#CCCCCC"/>
<path d="M19.363 177.63C19.2258 177.63 19.0888 177.618 18.9535 177.595L3.37947 174.946C3.06783 174.893 2.77009 174.778 2.50355 174.609C2.23701 174.439 2.0072 174.219 1.82762 173.959C1.64804 173.7 1.52234 173.407 1.45792 173.099C1.3935 172.79 1.39167 172.472 1.45252 172.163L13.6428 110.186C14.1019 107.51 15.6086 105.125 17.8317 103.556C20.0548 101.987 22.812 101.363 25.4969 101.82C28.1818 102.278 30.5743 103.78 32.1482 105.996C33.7221 108.212 34.3485 110.96 33.8895 113.637L21.6781 175.721C21.5758 176.258 21.2885 176.743 20.8658 177.092C20.4431 177.44 19.9116 177.631 19.363 177.63Z" fill="#CCCCCC"/>
<path d="M11.0428 191.099C16.2786 191.099 20.523 186.868 20.523 181.649C20.523 176.43 16.2786 172.199 11.0428 172.199C5.80696 172.199 1.5625 176.43 1.5625 181.649C1.5625 186.868 5.80696 191.099 11.0428 191.099Z" fill="#E6E6E6"/>
<path d="M57.0279 100.631C76.5167 100.631 92.3156 84.8829 92.3156 65.4562C92.3156 46.0296 76.5167 30.2812 57.0279 30.2812C37.5391 30.2812 21.7402 46.0296 21.7402 65.4562C21.7402 84.8829 37.5391 100.631 57.0279 100.631Z" fill="#E6E6E6"/>
<path d="M57.0279 100.631C76.5167 100.631 92.3156 84.8829 92.3156 65.4562C92.3156 46.0296 76.5167 30.2812 57.0279 30.2812C37.5391 30.2812 21.7402 46.0296 21.7402 65.4562C21.7402 84.8829 37.5391 100.631 57.0279 100.631Z" fill="#E6E6E6"/>
<path d="M57.0248 92.2316C71.8596 92.2316 83.8856 80.2441 83.8856 65.4566C83.8856 50.6692 71.8596 38.6816 57.0248 38.6816C42.19 38.6816 30.1641 50.6692 30.1641 65.4566C30.1641 80.2441 42.19 92.2316 57.0248 92.2316Z" fill="#2CEF32"/>
<path d="M60.1642 76.6947C58.423 76.6465 56.256 76.5862 54.5866 75.3706C54.0895 74.9938 53.6811 74.5132 53.3899 73.9625C53.0988 73.4117 52.932 72.8042 52.9012 72.1824C52.871 71.7405 52.9437 71.2977 53.1137 70.8885C53.2837 70.4793 53.5463 70.1148 53.881 69.8235C54.7529 69.0891 56.0262 68.9168 57.3983 69.3188L55.9767 58.9628L57.0203 58.8203L58.6916 70.9951L57.8201 70.5964C56.8097 70.1345 55.4228 69.8994 54.561 70.6254C54.3494 70.8152 54.1845 71.0511 54.0792 71.3147C53.9739 71.5784 53.931 71.8627 53.9539 72.1456C53.9794 72.6083 54.1047 73.0602 54.3211 73.4703C54.5375 73.8805 54.84 74.2394 55.208 74.5227C56.5072 75.4686 58.2345 75.5906 60.1935 75.6452L60.1642 76.6947Z" fill="#171717"/>
<path d="M50.8236 59.8574H45.1504V60.9074H50.8236V59.8574Z" fill="#171717"/>
<path d="M68.7338 59.8574H63.0605V60.9074H68.7338V59.8574Z" fill="#171717"/>
<path opacity="0.2" d="M38.9569 65.6241C38.9574 59.2262 41.2556 53.0398 45.4357 48.1846C49.6157 43.3295 55.4014 40.1265 61.7454 39.1553C57.9122 38.5098 53.9841 38.7015 50.2325 39.7171C46.4809 40.7327 42.9952 42.548 40.0162 45.0377C37.0372 47.5274 34.6359 50.632 32.9782 54.1371C31.3205 57.6423 30.4459 61.4643 30.4149 65.3393C30.3839 69.2143 31.1971 73.0498 32.7985 76.5808C34.3998 80.1119 36.7511 83.2543 39.6899 85.7911C42.6286 88.3278 46.0848 90.1984 49.8197 91.2736C53.5546 92.3487 57.4791 92.6029 61.3221 92.0185C55.0678 90.9597 49.3913 87.7287 45.2978 82.8978C41.2043 78.0668 38.9581 71.9477 38.9569 65.6241Z" fill="black"/>
<path d="M83.8883 177.712H30.1668C27.8628 177.709 25.6539 176.796 24.0248 175.172C22.3956 173.548 21.4792 171.346 21.4766 169.049V108.674C21.4792 106.378 22.3956 104.176 24.0248 102.552C25.6539 100.928 27.8628 100.014 30.1668 100.012H38.3304V102.374C38.3322 103.975 38.9709 105.51 40.1064 106.641C41.2419 107.773 42.7814 108.41 44.3872 108.412H69.6679C71.2737 108.41 72.8133 107.773 73.9488 106.641C75.0843 105.51 75.723 103.975 75.7248 102.374V100.012H83.8883C86.1923 100.014 88.4012 100.928 90.0304 102.552C91.6596 104.176 92.576 106.378 92.5786 108.674V169.049C92.576 171.346 91.6596 173.548 90.0304 175.172C88.4012 176.796 86.1923 177.709 83.8883 177.712Z" fill="#E6E6E6"/>
<path d="M91.0935 235.725H70.0216V211.476L42.502 169.415L60.1481 157.943L87.5474 199.821C89.5093 202.818 90.5826 206.305 90.6437 209.883L91.0935 235.725Z" fill="#E6E6E6"/>
<path d="M53.9625 251.737H33.4219V190.312H53.9625V251.737Z" fill="#E6E6E6"/>
<path d="M79.6718 196.088H34.3772C33.1903 196.087 32.0524 195.616 31.2131 194.78C30.3738 193.943 29.9017 192.809 29.9004 191.626V174.826C29.9017 173.643 30.3738 172.508 31.2131 171.672C32.0524 170.835 33.1903 170.365 34.3772 170.363H79.6718C80.8587 170.365 81.9966 170.835 82.8359 171.672C83.6752 172.508 84.1473 173.643 84.1486 174.826V191.626C84.1473 192.809 83.6752 193.943 82.8359 194.78C81.9966 195.616 80.8587 196.087 79.6718 196.088Z" fill="#E6E6E6"/>
<path d="M94.7817 245.437H70.291V229.162H94.7817C96.9468 229.162 99.0232 230.019 100.554 231.546C102.085 233.072 102.945 235.141 102.945 237.3C102.945 239.458 102.085 241.528 100.554 243.054C99.0232 244.58 96.9468 245.437 94.7817 245.437Z" fill="#CCCCCC"/>
<path d="M57.9126 251.738H33.4219V235.463H57.9126C60.0777 235.463 62.1541 236.32 63.6851 237.846C65.216 239.372 66.0761 241.442 66.0761 243.6C66.0761 245.759 65.216 247.828 63.6851 249.354C62.1541 250.881 60.0777 251.738 57.9126 251.738Z" fill="#CCCCCC"/>
<path d="M82.6724 126.788H63.1852C62.6963 126.788 62.2274 126.595 61.8817 126.25C61.536 125.905 61.3418 125.438 61.3418 124.951C61.3418 124.463 61.536 123.996 61.8817 123.651C62.2274 123.307 62.6963 123.113 63.1852 123.113H82.6724C83.1613 123.113 83.6302 123.307 83.9759 123.651C84.3216 123.996 84.5158 124.463 84.5158 124.951C84.5158 125.438 84.3216 125.905 83.9759 126.25C83.6302 126.595 83.1613 126.788 82.6724 126.788Z" fill="white"/>
<path d="M82.6724 133.351H63.1852C62.6963 133.351 62.2274 133.157 61.8817 132.813C61.536 132.468 61.3418 132.001 61.3418 131.513C61.3418 131.026 61.536 130.559 61.8817 130.214C62.2274 129.869 62.6963 129.676 63.1852 129.676H82.6724C83.1613 129.676 83.6302 129.869 83.9759 130.214C84.3216 130.559 84.5158 131.026 84.5158 131.513C84.5158 132.001 84.3216 132.468 83.9759 132.813C83.6302 133.157 83.1613 133.351 82.6724 133.351Z" fill="white"/>
<path d="M115.87 251.999H0.526682C0.386997 251.999 0.253041 251.944 0.154269 251.845C0.0554971 251.747 0 251.613 0 251.474C0 251.335 0.0554971 251.201 0.154269 251.103C0.253041 251.005 0.386997 250.949 0.526682 250.949H115.87C116.01 250.949 116.144 251.005 116.242 251.103C116.341 251.201 116.397 251.335 116.397 251.474C116.397 251.613 116.341 251.747 116.242 251.845C116.144 251.944 116.01 251.999 115.87 251.999Z" fill="#404040"/>
<path d="M153.771 106.05C159.007 106.05 163.252 101.819 163.252 96.6004C163.252 91.3813 159.007 87.1504 153.771 87.1504C148.535 87.1504 144.291 91.3813 144.291 96.6004C144.291 101.819 148.535 106.05 153.771 106.05Z" fill="#E6E6E6"/>
<path d="M156.662 134.663C155.824 134.662 155.021 134.33 154.429 133.739C153.836 133.149 153.503 132.348 153.502 131.513V18.1129C153.502 17.2775 153.835 16.4762 154.428 15.8855C155.02 15.2948 155.824 14.9629 156.662 14.9629C157.5 14.9629 158.304 15.2948 158.897 15.8855C159.489 16.4762 159.822 17.2775 159.822 18.1129V131.513C159.821 132.348 159.488 133.149 158.896 133.739C158.303 134.33 157.5 134.662 156.662 134.663Z" fill="#404040"/>
<path d="M252.606 15.929C249.831 13.5087 240.298 5.97496 227.999 4.59946C218.798 3.57571 208.049 5.99596 197.426 16.5905C188.904 25.085 180.867 29.1117 173.535 28.5657C166.051 28.004 161.074 22.7015 158.772 19.5882C158.611 19.3656 158.382 19.2006 158.119 19.1175C157.857 19.0343 157.574 19.0374 157.314 19.1262C157.047 19.2095 156.815 19.3759 156.651 19.6009C156.487 19.8259 156.4 20.0976 156.402 20.3757V59.5722C156.403 59.8207 156.474 60.0639 156.607 60.2738C156.741 60.4838 156.931 60.6519 157.156 60.7587C160.026 62.1132 170.365 66.6125 180.772 66.6125C186.876 66.6125 193.012 65.0637 197.668 60.4175C197.715 60.3702 197.757 60.3282 197.805 60.2862C206.053 52.2852 224.234 53.9284 237.501 56.543C242.989 57.6245 247.634 58.8687 250.389 59.6667C250.741 59.7682 251.113 59.7866 251.474 59.7204C251.835 59.6542 252.175 59.5052 252.469 59.2852C252.762 59.0652 253 58.7803 253.163 58.4529C253.327 58.1254 253.412 57.7645 253.412 57.3987V17.7087C253.412 17.372 253.34 17.0391 253.201 16.7323C253.063 16.4254 252.86 16.1515 252.606 15.929Z" fill="#00D47F"/>
<path d="M265.425 161.701C225.85 161.701 194.85 154.552 194.85 145.426C194.85 139.954 205.834 135.072 224.986 132.032C225.055 132.021 225.125 132.023 225.192 132.039C225.26 132.055 225.324 132.084 225.38 132.125C225.436 132.165 225.484 132.216 225.52 132.275C225.557 132.334 225.581 132.4 225.592 132.468C225.603 132.536 225.6 132.606 225.584 132.673C225.568 132.74 225.538 132.804 225.497 132.86C225.456 132.916 225.405 132.963 225.346 132.999C225.286 133.035 225.221 133.059 225.152 133.069C207.111 135.933 195.903 140.668 195.903 145.426C195.903 153.679 227.74 160.651 265.425 160.651C303.11 160.651 334.947 153.679 334.947 145.426C334.947 140.648 323.668 135.902 305.511 133.04C305.373 133.017 305.25 132.942 305.168 132.829C305.086 132.717 305.053 132.576 305.074 132.439C305.096 132.302 305.172 132.179 305.284 132.097C305.397 132.015 305.538 131.981 305.675 132.002C324.947 135.04 336 139.933 336 145.426C336 154.552 305 161.701 265.425 161.701Z" fill="#CCCCCC"/>
<path d="M230.406 164.766C233.987 170.878 239.115 175.945 245.277 179.461C251.44 182.977 258.42 184.819 265.521 184.801C272.621 184.783 279.593 182.907 285.737 179.36C291.882 175.813 296.984 170.72 300.534 164.59C277.179 165.929 253.768 165.988 230.406 164.766Z" fill="#E6E6E6"/>
<path d="M304.42 153.365C306.146 147.332 306.44 140.981 305.278 134.815C304.116 128.65 301.53 122.838 297.725 117.841C293.92 112.844 289.001 108.798 283.356 106.023C277.711 103.249 271.496 101.822 265.203 101.856C258.909 101.89 252.71 103.384 247.096 106.219C241.482 109.054 236.606 113.152 232.856 118.19C229.105 123.228 226.583 129.067 225.488 135.245C224.393 141.423 224.755 147.77 226.546 153.784C252.413 157.002 278.59 156.861 304.42 153.365Z" fill="#E6E6E6"/>
<path d="M273.853 127.575C276.471 127.575 278.594 125.46 278.594 122.85C278.594 120.24 276.471 118.125 273.853 118.125C271.235 118.125 269.113 120.24 269.113 122.85C269.113 125.46 271.235 127.575 273.853 127.575Z" fill="white"/>
<path d="M265.43 179.55C268.047 179.55 270.17 177.434 270.17 174.825C270.17 172.215 268.047 170.1 265.43 170.1C262.812 170.1 260.689 172.215 260.689 174.825C260.689 177.434 262.812 179.55 265.43 179.55Z" fill="white"/>
<path d="M250.154 147C254.517 147 258.054 143.474 258.054 139.125C258.054 134.776 254.517 131.25 250.154 131.25C245.791 131.25 242.254 134.776 242.254 139.125C242.254 143.474 245.791 147 250.154 147Z" fill="white"/>
</g>
<defs>
<clipPath id="clip0_1_27378">
<rect width="336" height="252" fill="white"/>
</clipPath>
</defs>
</svg>
