<svg width="20" height="20" viewBox="0 0 20 20" fill="none" xmlns="http://www.w3.org/2000/svg">
<path d="M14.4542 13.1177C15.2275 12.9607 15.9149 12.5219 16.3828 11.8866C16.8508 11.2513 17.0661 10.4648 16.9868 9.67975C16.9075 8.89469 16.5393 8.1671 15.9537 7.63823C15.3681 7.10935 14.6069 6.81693 13.8179 6.81772H13.0161C12.8052 6.00148 12.395 5.25036 11.8222 4.63182C11.2494 4.01328 10.5319 3.54667 9.73425 3.27388C8.93657 3.00109 8.08363 2.93067 7.25202 3.06894C6.4204 3.2072 5.63613 3.54983 4.96963 4.06605C4.30313 4.58227 3.77526 5.25593 3.43342 6.02654C3.09157 6.79716 2.94645 7.6406 3.01108 8.48116C3.07571 9.32171 3.34807 10.1331 3.80371 10.8424C4.25934 11.5516 4.884 12.1367 5.62158 12.545" stroke="#2CEF32" stroke-width="1.90908" stroke-linecap="round" stroke-linejoin="round"/>
<path d="M10.6353 9.36328L8.08984 13.1814H11.908L9.36256 16.9996" stroke="#2CEF32" stroke-width="1.90908" stroke-linecap="round" stroke-linejoin="round"/>
</svg>
