<svg width="50" height="40" viewBox="0 0 50 40" fill="none" xmlns="http://www.w3.org/2000/svg">
<path d="M3.36131 19.4805H0.992188C0.992188 20.6033 1.39416 23.1821 1.48819 23.8866C1.95921 27.4159 3.36131 32.5939 12.5197 37.0214C16.789 39.0853 30.5777 40.0665 38.2725 37.0214C46.817 33.6399 49.3159 28.0804 49.3159 22.6779H28.5676C28.5676 25.5794 24.6856 27.8627 21.8002 28.6265C19.2108 29.3119 11.1316 30.1172 6.4393 26.5503C6.00467 26.1683 3.26193 24.1631 3.36131 19.4805Z" fill="white" stroke="white" stroke-width="0.243817"/>
<path d="M3.36131 20.1797H0.992188C0.992188 19.0569 1.39416 16.478 1.48819 15.7735C1.95921 12.2442 3.36131 7.06625 12.5197 2.63876C16.789 0.574835 30.5777 -0.406376 38.2725 2.63876C46.817 6.02021 49.3159 11.5798 49.3159 16.9823H28.5676C28.5676 14.0808 24.6856 11.7974 21.8002 11.0336C19.2108 10.3482 11.1316 9.54292 6.4393 13.1099C6.00467 13.4918 3.26193 15.497 3.36131 20.1797Z" fill="white" stroke="white" stroke-width="0.243817"/>
</svg>
