<svg width="36" height="36" viewBox="0 0 36 36" fill="none" xmlns="http://www.w3.org/2000/svg">
<circle cx="18.12" cy="17.8085" r="15.4179" fill="white"/>
<path d="M22.4859 19.5867C22.5632 18.9493 22.6211 18.3119 22.6211 17.6552C22.6211 16.9986 22.5632 16.3612 22.4859 15.7238H25.75C25.9045 16.3419 26.0011 16.9889 26.0011 17.6552C26.0011 18.3216 25.9045 18.9686 25.75 19.5867H22.4859ZM20.7766 24.9561C21.356 23.8841 21.8002 22.7253 22.1093 21.5181H24.9581C24.0225 23.1292 22.5382 24.3496 20.7766 24.9561ZM20.5351 19.5867H16.0156C15.919 18.9493 15.8611 18.3119 15.8611 17.6552C15.8611 16.9986 15.919 16.3515 16.0156 15.7238H20.5351C20.6221 16.3515 20.6897 16.9986 20.6897 17.6552C20.6897 18.3119 20.6221 18.9493 20.5351 19.5867ZM18.2754 25.3424C17.4738 24.1835 16.8268 22.8991 16.4308 21.5181H20.1199C19.7239 22.8991 19.0769 24.1835 18.2754 25.3424ZM14.4125 13.7924H11.5926C12.5186 12.1769 14.0019 10.9546 15.7645 10.3544C15.1851 11.4264 14.7505 12.5852 14.4125 13.7924ZM11.5926 21.5181H14.4125C14.7505 22.7253 15.1851 23.8841 15.7645 24.9561C14.0055 24.3493 12.5244 23.1287 11.5926 21.5181ZM10.8007 19.5867C10.6462 18.9686 10.5496 18.3216 10.5496 17.6552C10.5496 16.9889 10.6462 16.3419 10.8007 15.7238H14.0648C13.9876 16.3612 13.9296 16.9986 13.9296 17.6552C13.9296 18.3119 13.9876 18.9493 14.0648 19.5867H10.8007ZM18.2754 9.95846C19.0769 11.1173 19.7239 12.4114 20.1199 13.7924H16.4308C16.8268 12.4114 17.4738 11.1173 18.2754 9.95846ZM24.9581 13.7924H22.1093C21.807 12.5963 21.3595 11.4417 20.7766 10.3544C22.5535 10.9628 24.031 12.1893 24.9581 13.7924ZM18.2754 7.99805C12.9349 7.99805 8.61816 12.3438 8.61816 17.6552C8.61816 20.2165 9.63562 22.6728 11.4467 24.4839C12.3434 25.3807 13.408 26.092 14.5797 26.5773C15.7514 27.0626 17.0072 27.3124 18.2754 27.3124C20.8366 27.3124 23.2929 26.295 25.104 24.4839C26.9151 22.6728 27.9326 20.2165 27.9326 17.6552C27.9326 16.387 27.6828 15.1313 27.1974 13.9596C26.7121 12.7879 26.0008 11.7233 25.104 10.8266C24.2073 9.92982 23.1427 9.21848 21.971 8.73316C20.7993 8.24784 19.5436 7.99805 18.2754 7.99805Z" fill="black"/>
</svg>
