<svg width="32" height="32" viewBox="0 0 32 32" fill="none" xmlns="http://www.w3.org/2000/svg">
<circle cx="15.8387" cy="15.8095" r="14.1493" fill="#FFB703"/>
<circle cx="15.8388" cy="15.8085" r="15.4179" fill="white"/>
<path d="M26.0265 11.827V20.9037C26.0265 21.7482 25.6911 22.558 25.094 23.1551C24.4969 23.7522 23.687 24.0877 22.8426 24.0877H8.83334C7.98891 24.0877 7.17907 23.7522 6.58196 23.1551C5.98486 22.558 5.64941 21.7482 5.64941 20.9037V11.827L15.5145 17.6319C15.6125 17.6897 15.7242 17.7202 15.838 17.7202C15.9518 17.7202 16.0635 17.6897 16.1615 17.6319L26.0265 11.827ZM22.8426 7.53125C23.6261 7.53113 24.382 7.81985 24.9659 8.34218C25.5498 8.86452 25.9206 9.58379 26.0074 10.3624L15.838 16.3444L5.66852 10.3624C5.75532 9.58379 6.12614 8.86452 6.71004 8.34218C7.29393 7.81985 8.04991 7.53113 8.83334 7.53125H22.8426Z" fill="black"/>
</svg>
