<svg width="32" height="27" viewBox="0 0 32 27" fill="none" xmlns="http://www.w3.org/2000/svg">
<path d="M17.6135 19.6733C17.0635 19.6733 16.3612 19.3908 14.2738 18.2615C13.0241 17.5855 11.3496 16.6377 9.29784 15.4435C5.81669 13.4184 2.39531 11.3525 2.36134 11.3319L0 9.90458L15.9333 1.34683C16.427 1.08039 16.9699 0.917799 17.5287 0.869062C18.0875 0.820324 18.6504 0.886472 19.1827 1.06343C21.2198 1.75149 25.0445 3.15901 27.7736 4.84776C30.7408 6.68446 31.1399 8.89012 31.1137 10.0426C31.0707 11.9696 29.83 13.7526 27.7121 14.9334C26.013 15.8795 23.8972 16.989 22.0523 17.8973C18.7131 19.5422 18.1295 19.62 17.8496 19.6574C17.7713 19.6679 17.6924 19.6732 17.6135 19.6733ZM6.3594 10.0598C7.50158 10.7406 8.94263 11.5946 10.4207 12.4569C15.3192 15.3157 17.0497 16.19 17.6526 16.4562C18.9027 15.9862 22.8638 14.0329 26.1816 12.1838C27.2997 11.5598 27.9524 10.7526 27.9705 9.96865C27.989 9.15158 27.3147 8.25968 26.1213 7.52045C23.5669 5.9392 19.7159 4.56007 18.179 4.04015C18.055 4.00008 17.9241 3.98604 17.7945 3.99891C17.6648 4.01179 17.5392 4.0513 17.4256 4.11498L6.3594 10.0598Z" fill="url(#paint0_linear_1_26695)"/>
<path d="M17.6135 26.5945C17.0635 26.5945 16.3612 26.312 14.2738 25.1827C13.0241 24.5067 11.3496 23.5589 9.29784 22.3651C5.81669 20.3396 2.39531 18.2737 2.36134 18.2531L0 16.8279L15.9333 8.26675C16.427 8.00031 16.9699 7.83772 17.5287 7.78898C18.0875 7.74025 18.6504 7.80639 19.1827 7.98336C21.2198 8.67142 25.0441 10.0789 27.7736 11.7677C30.7408 13.6044 31.1399 15.81 31.1137 16.9625C31.0707 18.8895 29.83 20.6725 27.7121 21.8534C26.013 22.7994 23.8972 23.9089 22.0523 24.8172C18.7131 26.4621 18.1295 26.5399 17.8496 26.5773C17.7713 26.5883 17.6925 26.594 17.6135 26.5945ZM6.3594 16.9815C7.50158 17.6618 8.94263 18.5158 10.4207 19.3781C15.3192 22.237 17.0497 23.1112 17.6526 23.3774C18.9027 22.9078 22.8638 20.9563 26.1816 19.1071C27.2997 18.4832 27.9524 17.676 27.9705 16.892C27.989 16.0749 27.3147 15.183 26.1213 14.4434C23.5669 12.8626 19.7159 11.4834 18.179 10.9635C18.055 10.9232 17.9241 10.9091 17.7944 10.9221C17.6647 10.935 17.5391 10.9748 17.4256 11.0388L6.3594 16.9815Z" fill="url(#paint1_linear_1_26695)"/>
<defs>
<linearGradient id="paint0_linear_1_26695" x1="-0.563529" y1="0.85351" x2="27.2907" y2="1.65513" gradientUnits="userSpaceOnUse">
<stop stop-color="#FFB703"/>
<stop offset="0.35783" stop-color="#FFD877" stop-opacity="0.99"/>
<stop offset="1" stop-color="#FFBF1E" stop-opacity="0.994003"/>
</linearGradient>
<linearGradient id="paint1_linear_1_26695" x1="-0.563529" y1="7.77343" x2="27.2907" y2="8.575" gradientUnits="userSpaceOnUse">
<stop stop-color="#FFB703"/>
<stop offset="0.35783" stop-color="#FFD877" stop-opacity="0.99"/>
<stop offset="1" stop-color="#FFBF1E" stop-opacity="0.994003"/>
</linearGradient>
</defs>
</svg>
