<svg width="32" height="32" viewBox="0 0 32 32" fill="none" xmlns="http://www.w3.org/2000/svg">
<path d="M16.0898 0.390625C7.57552 0.390625 0.671875 7.29427 0.671875 15.8085C0.671875 24.3228 7.57552 31.2264 16.0898 31.2264C24.604 31.2264 31.5077 24.3228 31.5077 15.8085C31.5077 7.29427 24.604 0.390625 16.0898 0.390625ZM24.9 9.1217L23.4959 10.4673C23.372 10.5602 23.3135 10.7117 23.3376 10.8597V20.7608C23.3135 20.9123 23.372 21.0637 23.4959 21.1532L24.8725 22.4988V22.7982H17.9619V22.5126L19.3833 21.1325C19.5244 20.9914 19.5244 20.9501 19.5244 20.7402V12.7284L15.5667 22.7638H15.0332L10.4285 12.7284V19.4565C10.3872 19.7387 10.487 20.0244 10.6866 20.2274L12.5382 22.4678V22.7672H7.27955V22.4678L9.13107 20.2274C9.22862 20.1266 9.30122 20.0044 9.34305 19.8706C9.38489 19.7367 9.39479 19.5949 9.37197 19.4565V11.6787C9.39607 11.4619 9.31347 11.252 9.14828 11.104L7.50324 9.1217V8.82229H12.6139L16.5578 17.4776L20.0303 8.82917H24.9V9.1217Z" fill="white"/>
</svg>
