<svg width="32" height="32" viewBox="0 0 32 32" fill="none" xmlns="http://www.w3.org/2000/svg">
<path d="M31.0233 15.8085C31.0233 19.8976 29.3989 23.8192 26.5075 26.7106C23.6161 29.602 19.6945 31.2264 15.6054 31.2264C11.5163 31.2264 7.59472 29.602 4.7033 26.7106C1.81188 23.8192 0.1875 19.8976 0.1875 15.8085C0.1875 11.7194 1.81188 7.79784 4.7033 4.90642C7.59472 2.01501 11.5163 0.390625 15.6054 0.390625C19.6945 0.390625 23.6161 2.01501 26.5075 4.90642C29.3989 7.79784 31.0233 11.7194 31.0233 15.8085ZM16.1585 11.7729C14.6591 12.3973 11.6603 13.6886 7.16603 15.6466C6.43753 15.9357 6.05401 16.221 6.01932 16.4985C5.9615 16.9668 6.54931 17.1518 7.34911 17.4043L7.68638 17.5103C8.47269 17.7666 9.53267 18.0653 10.0819 18.0769C10.583 18.0884 11.14 17.8842 11.7548 17.4602C15.9542 14.6252 18.1224 13.1933 18.2573 13.1624C18.3536 13.1393 18.4885 13.1123 18.5772 13.1933C18.6678 13.2723 18.6581 13.4245 18.6485 13.465C18.5907 13.7136 16.2838 15.8567 15.0908 16.9668C14.7189 17.3137 14.4548 17.5585 14.4009 17.6143C14.282 17.7358 14.1613 17.8553 14.0386 17.9728C13.3062 18.6782 12.7589 19.2062 14.0675 20.0696C14.6977 20.4859 15.2026 20.8271 15.7056 21.1701C16.253 21.544 16.8003 21.9159 17.5095 22.3823C17.6887 22.498 17.8622 22.6232 18.0299 22.7427C18.6678 23.1976 19.244 23.6061 19.9513 23.5406C20.3638 23.5021 20.7897 23.1166 21.0055 21.9603C21.5162 19.2294 22.5203 13.3147 22.7516 10.8767C22.7657 10.6741 22.7573 10.4705 22.7265 10.2696C22.7084 10.1076 22.63 9.95832 22.5068 9.85143C22.3315 9.73038 22.1224 9.66767 21.9094 9.6722C21.3312 9.68184 20.4389 9.99212 16.1585 11.7729Z" fill="white"/>
</svg>
