<svg width="32" height="32" viewBox="0 0 32 32" fill="none" xmlns="http://www.w3.org/2000/svg">
<path d="M16.3632 0.390625C7.84803 0.390625 0.945312 7.29335 0.945312 15.8085C0.945312 24.3237 7.84803 31.2264 16.3632 31.2264C24.8784 31.2264 31.7811 24.3237 31.7811 15.8085C31.7811 7.29335 24.8784 0.390625 16.3632 0.390625ZM22.6348 13.0205C22.6412 13.1521 22.6428 13.2838 22.6428 13.4123C22.6428 17.4274 19.5897 22.0544 14.004 22.0544C12.3534 22.0571 10.7372 21.5831 9.34967 20.6893C9.58576 20.7182 9.82827 20.7294 10.074 20.7294C11.4969 20.7294 12.8059 20.246 13.845 19.4301C13.2117 19.4177 12.5981 19.208 12.0897 18.8303C11.5813 18.4526 11.2034 17.9257 11.0087 17.323C11.4635 17.4095 11.9319 17.3914 12.3786 17.27C11.6913 17.131 11.0733 16.7586 10.6292 16.2159C10.1852 15.6732 9.94247 14.9936 9.9423 14.2924V14.2555C10.3518 14.4819 10.8208 14.6201 11.3187 14.6361C10.6743 14.2072 10.2182 13.5483 10.0436 12.7942C9.86891 12.0401 9.98896 11.2478 10.3791 10.5793C11.1419 11.5172 12.0932 12.2845 13.1713 12.8314C14.2495 13.3784 15.4305 13.6928 16.6378 13.7544C16.4843 13.1029 16.5504 12.4188 16.8258 11.8087C17.1011 11.1986 17.5703 10.6965 18.1605 10.3806C18.7506 10.0646 19.4286 9.95249 20.089 10.0616C20.7495 10.1707 21.3553 10.495 21.8125 10.984C22.4921 10.8495 23.1438 10.6003 23.7397 10.2468C23.5132 10.9505 23.039 11.548 22.4051 11.9284C23.0071 11.8558 23.595 11.694 24.1493 11.4481C23.7421 12.0583 23.2292 12.5907 22.6348 13.0205Z" fill="white"/>
</svg>
